/* XPM */
static char * alpha_xpm[] = {
"658 20 3 1",
" 	g None",
".	g #FFFFFF",
"+	g #000000",
"..................................................................................................................................................................................................................................................................................................................................................................................................................................................................................................................................................................................................................................................................................",
"..........................................................................................................................................................................................................................................................................................................................................................................................................................................................++.......+.......................................................................+++++.........+++.........++++++........++++++...........++++.....++++++++++........+++++....++++++++++........+++++.........++++......",
"...............+++++++......++++++++++........+++++.++..++++++++......++++++++++++..++++++++++++......+++++.++..+++++..+++++....+++++++++.......+++++++++.+++++..+++++..+++++++.......++++.....++++.++++...++++++.....+++++......+++++++++........+++++.....++++++++++.......++++++.+...++++++++++++..+++++...+++++++++++...+++++++++++...++++++++++++.+++++..++++++.+++++...++++++++++..................................................................++........+++.........................................+++.........+++.+++.......++++++++.....++++++........++++++++......++++++++..........++++.....+++++++++........+++++++...++++++++++......++++++++......++++++++....",
"...............++++++++.....+++++++++++.....++++++++++..++++++++++....++++++++++++..++++++++++++....++++++++++..++++++.+++++...++++++++++.......+++++++++.++++++.++++++.+++++++......+++++.....++++++++++..++++++...+++++++++...+++++++++++.....+++++++++...+++++++++++.....+++++++++...+++++++++++++++++++..++++++++++++...+++++++++++...++++++++++++.+++++..++++++.+++++..+++++++++++.........................................++..++..................+++.........+++........................................+++.........+++.+++......++++..++++....++++++.......+++...++++....+++...++++........+++++.....+++.............++++.......++.....++......++++..++++.....+++..+++....",
".................+++.++......+++....++++...++++...++++...+++...++++....+++.....+++...+++.....+++...++++...++++...+++....+++........+++.............+++.....+++...+++++....+++..........++++...++++...++++....+++...++++...++++....+++...++++...++++...++++...+++....++++...++++...+++...++...+++..+++..+++.....+++...++......++....++.......++...++++...++++....++....+++...+++....+++........................................++++..++++................++..........+++........................................+++.........+++.+++......+++....+++.......+++.......+++....+++...........+++.......++++++.....+++............+++.........++.....++......+++....+++....+++....+++...",
".................+++.+++.....+++.....+++...+++.....+++...+++....+++....+++.....+++...+++.....+++...+++.....+++...+++....+++........+++.............+++.....+++..++++......+++..........++++...++++...+++++...+++...+++.....+++....+++....+++...+++.....+++...+++.....+++...+++.....++...++...+++..+++..+++.....+++...+++....+++....++...+...++.....+++.+++......+++...++....+++...+++.......................................+++++....+++++.............+++...........+++.......................................+++.........+++.+++.....++++.....+++......+++........+.....+++...........+++.......++.+++.....+++............+++...............+++......+++....+++....+++....+++...",
".................+++.+++.....+++.....+++..+++.......++...+++.....+++...+++..++.+++...+++...+.+++..+++.......++...+++....+++........+++.............+++.....+++..+++.......+++..........++++...++++...+++++...+++..+++......++++...+++....+++..+++......++++..+++.....+++...+++......+...++...+++..+++..+++.....+++...+++....+++....++..+++..++.....+++.++........+++.+++....+++..++++....................................++++++........++++++..........+++...........+++...........+++...........+++...........+++.........+++.+++.....+++......+++......+++..............+++..........++++......+++.+++.....++++++++......+++................+++.......+++...+++....+++....+++...",
".................++..+++.....+++....+++...+++........+...+++.....+++...+++..+++......+++..+++.....+++........+...+++....+++........+++.............+++.....+++.+++........+++..........++.++.++.++...++++++..+++..+++.......+++...+++....+++..+++.......+++..+++....++++...++++++.......++...+++..+++..+++.....+++....++....++.....++..+++..++......+++++........+++.++......++..+++...................................++++++............++++++.......+++............++++.........+++++.........+++++..........+++.........+++.+++.....+++......+++......+++.............+++........++++++......+++..+++.....+++++++++.....+++.++++...........++.........+++++++.....+++....+++...",
"................+++...+++....+++++++++....+++............+++.....+++...++++++++......++++++++.....+++............++++++++++........+++.............+++.....+++++++........+++..........++.++.++.++...+++.+++.+++..+++.......+++...+++...++++..+++.......+++..++++++++++.....++++++++.....+...+++...+...+++.....+++....+++...++.....++.++.++.++.......+++..........+++++.........++++..................................+++++................+++++......+++.............+++.........+++++.........+++++..................................+++......+++......+++............++++........++++++......++...+++.....+++...+++.....+++++++++.........+++.........+++++++......+++..++++...",
"................+++...+++....++++++++++...+++............+++.....+++...++++++++......++++++++.....+++....++++++..++++++++++........+++.......+.....+++.....++++++++.......+++..........++.++.++.++...+++.+++.+++..+++.......+++...+++++++++...+++.......+++..+++++++++.......++++++++........+++.......+++.....+++....+++..+++.....++.++.++.++.......+++..........++++.........++++...................................+++++................+++++......+++.............+++..........+++...........+++...................................+++......+++......+++...........++++............++++....++....+++............+++....++++..++++........+++........+++...+++.....+++++++++...",
"................+++++++++....+++.....+++..+++............+++.....+++...+++..+++......+++..+++.....+++...+++++++..+++....+++........+++......+++....+++.....++++.++++......+++.....+++..++..+++..++...+++..++++++..+++.......+++...++++++++....+++.......+++..+++..++++..........++++++.......+++.......+++.....+++.....++..++......++.++.+++++......+++++..........+++.........+++..+++................................++++++............++++++.......+++.............+++..............................................................+++......+++......+++..........++++..............+++....+++++++++++..........+++....+++....+++........+++.......+++....++++.....++++.+++...",
"...............+++++++++++...+++.....+++..+++............+++.....+++...+++.....+++...+++..........+++......+++...+++....+++........+++......+++....+++.....+++...+++......+++.....+++..++..+++..++...+++..++++++..+++.......+++...+++.........+++.......+++..+++...++++....++......+++.......+++.......+++.....+++.....+++.++......++++...++++.....+++.+++.........+++........++++..+++..................................++++++........++++++.........+++.............+++..............................................................+++......+++......+++.........++++...............+++....++++++++++...........+++....+++....+++.......+++........+++.....+++..........++....",
"...............+++.....+++...+++.....+++...+++......++...+++....+++....+++.....+++...+++...........+++.....+++...+++....+++........+++......+++....+++.....+++...++++.....+++.....+++..++...+...++...+++...+++++...+++.....+++....+++..........+++.....+++...+++....+++...+++......+++.......+++.......+++.....+++.....+++.++......++++...++++.....++..+++.........+++........+++...+++........++++..........+++............++++++...+++++............+++.............+++..........++++..........+++....................................+++....+++.......+++........++++....+...........+++..........+++............+++....+++....+++.......+++........+++.....+++.........+++....",
"...............++......+++...+++....++++...++++....+++...+++...++++....+++.....+++...+++...........++++....+++...+++....+++........+++......++++..++++.....+++....+++.+...+++.....+++.+++.......+++..+++...+++++...++++...++++....+++..........++++...++++...+++....+++++.++++....++++.......+++.......++++...++++......++++.......++++...++++...++++...+++.+......+++.......+++....+++.......+++++.........+++++.............++++..++++..............+++.............+++.........+++++.........+++++...................................++++..++++.......+++.......++++....++....+++...++++..........+++.....++....++++.....+++..++++.......+++........++++...++++........+++.....",
"..............+++++...+++++++++++++++++.....++++++++++..++++++++++....++++++++++++..++++++..........++++++++++..++++++.+++++....+++++++++...+++++++++.....++++++..+++++.++++++++++++++++++.....+++++++++++..++++....+++++++++....++++++.........+++++++++...++++++...++++.+++++++++++.....+++++++++.....+++++++++.......++++........+++...+++...++++++.++++++...++++++++....+++++++++++.......++++..........+++++...............++..++.................+++...........+++..........++++..........+++++....................................++++++++.....+++++++++....++++++++++....+++++++++........+++++++....+++++++++......++++++++.......++++.........+++++++++.....++++++......",
"..............+++++..+++++++++++++++++........++++++....++++++++......++++++++++++..++++++............++++++....++++++.+++++...++++++++++.....++++++......++++++...++++.+++++++++++++++++++...++++++++++++...+++......+++++.....+++++++...........+++++.....++++++....+++..+++++++++.....++++++++++......++++++.........++++........++.....++...++++++.++++++...+++++++++...+++++++++++.......++++...........+++.......................................+++...........+++..........++++...........+++.......................................+++++......+++++++++....++++++++++.....++++++..........+++++++....+++++++..........+++++........+++...........++++++......++++++.......",
".................................................................................................................................................................................................................................................++...........................................................................................................................................+++.......................................................++..........+++...........+++.............................................................................................................................................................................................",
".................................................................................................................................................................................................................................................++++++++++..................................................................................................................................+++........................................................+++.........+++..........+++..............................................................................................................................................................................................",
"................................................................................................................................................................................................................................................++++++++++...................................................................................................................................+++.........................................................++........+++...........+++..............................................................................................................................................................................................",
"................................................................................................................................................................................................................................................++...........................................................................................................................................++...........................................................++.......+.............++..............................................................................................................................................................................................."};
